<svg xmlns="http://www.w3.org/2000/svg" width="96" height="96" fill="none" viewBox="0 0 96 96" id="chat-question">
    <path fill="url(#paint0_linear_963_9331)" fill-rule="evenodd"
          d="M25 12.5C15.335 12.5 7.5 20.335 7.5 30V53.1392C7.5 62.8042 15.335 70.6392 25 70.6392H35.9793C36.5569 70.6392 37.0832 70.9709 37.3324 71.492L43.0384 83.4209C45.0325 87.5898 50.9675 87.5899 52.9616 83.4209L58.6676 71.492C58.9168 70.9709 59.4431 70.6392 60.0207 70.6392H71C80.665 70.6392 88.5 62.8042 88.5 53.1392V30C88.5 20.335 80.665 12.5 71 12.5H25ZM12.5 30C12.5 23.0964 18.0964 17.5 25 17.5H71C77.9036 17.5 83.5 23.0964 83.5 30V53.1392C83.5 60.0428 77.9036 65.6392 71 65.6392H60.0207C57.5177 65.6392 55.2371 67.0765 54.157 69.3344L48.451 81.2634C48.2698 81.6424 47.7302 81.6424 47.5489 81.2634L41.843 69.3344C40.7629 67.0764 38.4823 65.6392 35.9793 65.6392H25C18.0964 65.6392 12.5 60.0428 12.5 53.1392V30ZM45.5 38.3902C45.5 37.4041 46.3369 36.5 47.5 36.5C48.6631 36.5 49.5 37.4041 49.5 38.3902C49.5 38.9346 49.2579 39.4365 48.8383 39.7944L48.7751 39.8483C48.1375 40.392 47.2455 41.1525 46.5259 42.0464C45.7675 42.9883 45 44.3179 45 46C45 47.3807 46.1193 48.5 47.5 48.5C48.8807 48.5 50 47.3807 50 46C50 45.904 50.0365 45.6588 50.4205 45.1819C50.819 44.6869 51.3716 44.2056 52.0834 43.5983C53.5504 42.3468 54.5 40.483 54.5 38.3902C54.5 34.527 51.3074 31.5 47.5 31.5C43.6926 31.5 40.5 34.527 40.5 38.3902C40.5 39.771 41.6193 40.8902 43 40.8902C44.3807 40.8902 45.5 39.771 45.5 38.3902ZM47.7166 58.4922C49.3734 58.4922 50.7166 57.149 50.7166 55.4922C50.7166 53.8353 49.3734 52.4922 47.7166 52.4922C46.0597 52.4922 44.7166 53.8353 44.7166 55.4922C44.7166 57.149 46.0597 58.4922 47.7166 58.4922Z"
          clip-rule="evenodd" />
    <defs>
        <linearGradient id="paint0_linear_963_9331" x1="48" x2="48" y1="12.5" y2="86.548"
                        gradientUnits="userSpaceOnUse">
            <stop stop-color="#FF1F00" />
            <stop offset="1" stop-color="#FF8A00" />
        </linearGradient>
    </defs>
</svg>